<?xml version="1.0" ?><svg viewBox="0 0 128 128" xmlns="http://www.w3.org/2000/svg"><defs><style>.cls-1{fill:#f8db94;}.cls-2{fill:#f8991d;}.cls-3{fill:#fff;}.cls-4{fill:#5bc9e1;}.cls-5{fill:#314967;}</style></defs><title/><g data-name="17 Store" id="_17_Store"><path class="cls-1" d="M19,40h90a0,0,0,0,1,0,0v66a6,6,0,0,1-6,6H25a6,6,0,0,1-6-6V40A0,0,0,0,1,19,40Z"/><path class="cls-2" d="M109,40H19l7.54-20.11A6,6,0,0,1,32.16,16H95.84a6,6,0,0,1,5.62,3.89Z"/><path class="cls-2" d="M30.25,58A11.25,11.25,0,0,1,19,46.75V40H41.5v6.75A11.25,11.25,0,0,1,30.25,58Z"/><path class="cls-2" d="M52.75,58A11.25,11.25,0,0,1,41.5,46.75V40H64v6.75A11.25,11.25,0,0,1,52.75,58Z"/><path class="cls-2" d="M75.25,58A11.25,11.25,0,0,1,64,46.75V40H86.5v6.75A11.25,11.25,0,0,1,75.25,58Z"/><path class="cls-3" d="M97.75,58A11.25,11.25,0,0,1,86.5,46.75V40H109v6.75A11.25,11.25,0,0,1,97.75,58Z"/><path class="cls-2" d="M97.75,58A11.25,11.25,0,0,1,86.5,46.75V40H109v6.75A11.25,11.25,0,0,1,97.75,58Z"/><rect class="cls-4" height="20" rx="4" ry="4" width="25" x="31" y="67"/><path class="cls-2" d="M73,67H93a4,4,0,0,1,4,4v41a0,0,0,0,1,0,0H69a0,0,0,0,1,0,0V71A4,4,0,0,1,73,67Z"/><path class="cls-5" d="M107,79.8V106a4,4,0,0,1-4,4H99V71a6,6,0,0,0-6-6H73a6,6,0,0,0-6,6v8.33a2,2,0,0,0,4,0V71a2,2,0,0,1,2-2H93a2,2,0,0,1,2,2v39H71V84.55a2,2,0,0,0-4,0V110H25a4,4,0,0,1-4-4V68a2,2,0,0,0-4,0v38a8,8,0,0,0,8,8h78a8,8,0,0,0,8-8V79.8A2,2,0,0,0,107,79.8Z"/><path class="cls-5" d="M103.33,19.19A8,8,0,0,0,95.84,14H72.12a2,2,0,0,0,0,4h8.22l3.75,20H66V18h.07a2,2,0,0,0,0-4h-8.5a2,2,0,0,0,0,4H62V38H43.91l3.75-20h3.9a2,2,0,0,0,0-4H32.16a8,8,0,0,0-7.49,5.19C24.45,19.76,17,39.41,17,40V61.76a2,2,0,0,0,4,0V56.22a13.21,13.21,0,0,0,20.5-2.5,13.15,13.15,0,0,0,1.07,1.51,2,2,0,0,0,3.07-2.56C43,49.56,43.5,46.64,43.5,42H62v4.75a9.26,9.26,0,0,1-12.49,8.67,2,2,0,0,0-1.4,3.75A13.23,13.23,0,0,0,64,53.72a13.22,13.22,0,0,0,22.5,0,13.21,13.21,0,0,0,20.5,2.5V74.58a2,2,0,0,0,4,0V40C111,39.41,103.54,19.74,103.33,19.19ZM30.25,56A9.26,9.26,0,0,1,21,46.75V42h5.64a2,2,0,0,0,0-4H21.89l6.53-17.4A4,4,0,0,1,32.16,18H43.59L39.84,38H31.25a2,2,0,0,0,0,4H39.5v4.75A9.26,9.26,0,0,1,30.25,56ZM95.84,18a4,4,0,0,1,3.75,2.6L106.11,38h-18L84.41,18Zm1.91,38a9.26,9.26,0,0,1-9.25-9.25,2,2,0,0,0-4,0,9.25,9.25,0,0,1-18.5,0V42H84.53a2,2,0,0,0,3.95,0H107v4.75A9.26,9.26,0,0,1,97.75,56Z"/><path class="cls-5" d="M35,69a2,2,0,0,0,0-4,6,6,0,0,0-6,6V83a6,6,0,0,0,6,6H52a6,6,0,0,0,6-6V71a6,6,0,0,0-6-6H40.29a2,2,0,0,0,0,4H52a2,2,0,0,1,2,2V83a2,2,0,0,1-2,2H35a2,2,0,0,1-2-2V71A2,2,0,0,1,35,69Z"/></g></svg>